<?xml version="1.0" encoding="utf-8"?>
<!-- Generator: Adobe Illustrator 23.0.1, SVG Export Plug-In . SVG Version: 6.00 Build 0)  -->
<svg version="1.1" xmlns="http://www.w3.org/2000/svg" xmlns:xlink="http://www.w3.org/1999/xlink" x="0px" y="0px"
	 viewBox="0 0 585 266" style="enable-background:new 0 0 585 266;" xml:space="preserve">
<style type="text/css">
	.st0{display:none;}
	.st1{fill:#999999;}
	.st2{fill:#D6D6D6;}
	.st3{fill:#2681F3;}
	.st4{font-family:'MyriadPro-Regular';}
	.st5{font-size:12px;}
</style>
<g id="BG" class="st0">
	
		<image style="display:inline;overflow:visible;" width="350" height="153" xlink:href="chart2.png"  transform="matrix(1.6714 0 0 1.7386 -12 0)">
	</image>
</g>
<g id="Ebene_2">
	<rect x="37" y="264" class="st1" width="536" height="2"/>
	<rect x="36" y="10" class="st1" width="536" height="2"/>
	<rect x="36" y="68" class="st2" width="536" height="2"/>
	<rect x="36" y="130" class="st2" width="536" height="2"/>
	<rect x="36" y="196" class="st2" width="536" height="2"/>
	<rect x="42" y="25" class="st3" width="21" height="238"/>
	<rect x="84" y="49" class="st1" width="21" height="215"/>
	<rect x="125.9" y="81" class="st1" width="21" height="183"/>
	<rect x="168.9" y="105" class="st1" width="21" height="159"/>
	<rect x="211.9" y="120" class="st1" width="21" height="144"/>
	<rect x="253.9" y="141" class="st1" width="21" height="123"/>
	<rect x="296.8" y="148" class="st1" width="21" height="116"/>
	<rect x="338.8" y="164" class="st1" width="21" height="100"/>
	<rect x="381.8" y="184" class="st1" width="21" height="80"/>
	<rect x="423.7" y="196" class="st1" width="21" height="68"/>
	<rect x="466.7" y="196" class="st1" width="21" height="68"/>
	<rect x="509.7" y="211" class="st1" width="21" height="53"/>
	<rect x="551.6" y="211" class="st1" width="21" height="53"/>
	<text transform="matrix(1 0 0 1 46.8662 21.5225)" class="st4 st5">74</text>
	<text transform="matrix(1 0 0 1 88.8662 45.5225)" class="st4 st5">67</text>
	<text transform="matrix(1 0 0 1 129.8662 78.5225)" class="st4 st5">56</text>
	<text transform="matrix(1 0 0 1 174.8662 99.5225)" class="st4 st5">48</text>
	<text transform="matrix(1 0 0 1 215.8662 114.5225)" class="st4 st5">46</text>
	<text transform="matrix(1 0 0 1 259.8662 137.5225)" class="st4 st5">38</text>
	<text transform="matrix(1 0 0 1 300.8662 143.5225)" class="st4 st5">37</text>
	<text transform="matrix(1 0 0 1 343.8662 160.5225)" class="st4 st5">34</text>
	<text transform="matrix(1 0 0 1 386.8662 179.5225)" class="st4 st5">25</text>
	<text transform="matrix(1 0 0 1 430.8662 191.5225)" class="st4 st5">20</text>
	<text transform="matrix(1 0 0 1 472.8662 191.5225)" class="st4 st5">20</text>
	<text transform="matrix(1 0 0 1 513.8662 207.5225)" class="st4 st5">17</text>
	<text transform="matrix(1 0 0 1 555.8662 207.5225)" class="st4 st5">17</text>
	<text transform="matrix(1 0 0 1 17.5928 12.1465)" class="st1 st4 st5">80</text>
	<text transform="matrix(1 0 0 1 17.5928 71.1465)" class="st1 st4 st5">60</text>
	<text transform="matrix(1 0 0 1 17.5928 133.1465)" class="st1 st4 st5">40</text>
	<text transform="matrix(1 0 0 1 17.5928 198.1465)" class="st1 st4 st5">20</text>
	<text transform="matrix(1 0 0 1 23.5928 263.1465)" class="st1 st4 st5">0</text>
</g>
</svg>
