<?xml version="1.0" encoding="utf-8"?>
<!-- Generator: Adobe Illustrator 23.0.1, SVG Export Plug-In . SVG Version: 6.00 Build 0)  -->
<svg version="1.1" id="Ebene_2" xmlns="http://www.w3.org/2000/svg" xmlns:xlink="http://www.w3.org/1999/xlink" x="0px" y="0px"
	 viewBox="0 0 585 266" style="enable-background:new 0 0 585 266;" xml:space="preserve">
<style type="text/css">
	.st0{clip-path:url(#SVGID_2_);fill:#999999;}
	.st1{clip-path:url(#SVGID_2_);fill:#2681F3;}
	.st2{clip-path:url(#SVGID_2_);fill:none;stroke:#999999;stroke-miterlimit:10;}
	.st3{clip-path:url(#SVGID_2_);}
	.st4{fill:#999999;}
	.st5{font-family:'MyriadPro-Regular';}
	.st6{font-size:12px;}
</style>
<image style="display:none;overflow:visible;" width="261" height="165" xlink:href="chart3.png"  transform="matrix(1.6121 0 0 1.6121 82 0)">
</image>
<g>
	<defs>
		<rect id="SVGID_1_" width="585" height="266"/>
	</defs>
	<clipPath id="SVGID_2_">
		<use xlink:href="#SVGID_1_"  style="overflow:visible;"/>
	</clipPath>
	<rect x="138" y="96" class="st0" width="20" height="160"/>
	<rect x="373" y="116" class="st0" width="20" height="139"/>
	<rect x="450" y="158" class="st1" width="20" height="97"/>
	<rect x="215" y="224" class="st1" width="20" height="32"/>
	<rect x="106" y="256.5" class="st2" width="82" height="51"/>
	<rect x="188" y="256.5" class="st2" width="82" height="51"/>
	<rect x="341.5" y="255.5" class="st2" width="80.8" height="51"/>
	<rect x="422.3" y="255.5" class="st2" width="80.8" height="51"/>
	<g class="st3">
		<text transform="matrix(1 0 0 1 81.7769 11.9429)" class="st4 st5 st6">$1M</text>
	</g>
	<g class="st3">
		<text transform="matrix(1 0 0 1 319.7769 11.9429)" class="st4 st5 st6">$1M</text>
	</g>
	<g class="st3">
		<text transform="matrix(1 0 0 1 85.7769 260.9429)" class="st4 st5 st6">0</text>
	</g>
	<g class="st3">
		<text transform="matrix(1 0 0 1 322.7769 260.9429)" class="st4 st5 st6">0</text>
	</g>
	<g class="st3">
		<text transform="matrix(1 0 0 1 137.5796 93.1592)" class="st5 st6">5.85</text>
	</g>
	<g class="st3">
		<text transform="matrix(1 0 0 1 214.605 220.4141)" class="st5 st6">0.92</text>
	</g>
	<g class="st3">
		<text transform="matrix(1 0 0 1 376.2549 113.0767)" class="st5 st6">5.0</text>
	</g>
	<g class="st3">
		<text transform="matrix(1 0 0 1 452.9238 154.7451)" class="st5 st6">3.5</text>
	</g>
</g>
</svg>
